<svg xmlns="http://www.w3.org/2000/svg" xmlns:xlink="http://www.w3.org/1999/xlink" width="420" zoomAndPan="magnify" viewBox="0 0 315 314.999992" height="420" preserveAspectRatio="xMidYMid meet" version="1.0"><defs><clipPath id="e3f5db8992"><path d="M 0 85.050781 L 315 85.050781 L 315 229.800781 L 0 229.800781 Z M 0 85.050781 " clip-rule="nonzero"/></clipPath></defs><g clip-path="url(#e3f5db8992)"><path fill="#f7fafc" d="M 314.652344 161.554688 C 314.394531 161.257812 314.03125 160.988281 313.558594 160.75 C 313.085938 160.515625 312.574219 160.355469 312.015625 160.269531 C 311.457031 160.1875 310.902344 160.226562 310.34375 160.398438 C 309.785156 160.570312 309.273438 160.851562 308.800781 161.234375 C 304.988281 162.050781 300.886719 162.359375 296.496094 162.167969 C 292.101562 161.972656 287.519531 161.492188 282.738281 160.722656 C 277.960938 159.949219 272.992188 158.996094 267.828125 157.859375 C 262.664062 156.726562 257.371094 155.632812 251.953125 154.582031 C 246.53125 153.535156 241.015625 152.632812 235.402344 151.882812 C 230.796875 151.269531 226.167969 150.902344 221.519531 150.777344 C 220.84375 143.375 219.042969 136.183594 216.140625 129.316406 C 212.496094 120.699219 207.277344 112.957031 200.628906 106.308594 C 193.980469 99.660156 186.238281 94.441406 177.621094 90.796875 C 168.695312 87.019531 159.214844 85.105469 149.441406 85.105469 C 139.671875 85.105469 130.191406 87.019531 121.265625 90.796875 C 112.644531 94.441406 104.90625 99.660156 98.257812 106.308594 C 91.609375 112.957031 86.390625 120.699219 82.742188 129.316406 C 81.800781 131.546875 80.976562 133.808594 80.265625 136.101562 C 75.5 136.691406 70.789062 137.417969 66.132812 138.289062 C 60.414062 139.359375 54.832031 140.496094 49.386719 141.695312 C 43.945312 142.894531 38.699219 143.921875 33.640625 144.777344 C 28.585938 145.636719 23.753906 146.195312 19.144531 146.449219 C 14.539062 146.707031 10.222656 146.410156 6.191406 145.550781 C 5.722656 145.164062 5.207031 144.886719 4.652344 144.714844 C 4.09375 144.546875 3.539062 144.503906 2.980469 144.585938 C 2.421875 144.675781 1.90625 144.832031 1.4375 145.066406 C 0.964844 145.304688 0.601562 145.570312 0.34375 145.871094 C 0.0859375 146.171875 0.00390625 146.472656 0.0859375 146.769531 C 0.171875 147.070312 0.472656 147.304688 0.988281 147.476562 C 6.085938 148.421875 11.28125 148.816406 16.574219 148.667969 C 21.863281 148.515625 27.210938 148.054688 32.609375 147.285156 C 38.007812 146.511719 43.460938 145.546875 48.96875 144.390625 C 54.472656 143.234375 59.980469 142.109375 65.484375 141.019531 C 70.171875 140.085938 74.855469 139.285156 79.542969 138.601562 C 77.890625 144.722656 77.050781 151.042969 77.050781 157.492188 C 77.050781 167.265625 78.964844 176.746094 82.738281 185.671875 C 86.386719 194.292969 91.605469 202.03125 98.253906 208.679688 C 104.902344 215.328125 112.644531 220.546875 121.261719 224.191406 C 130.1875 227.96875 139.667969 229.882812 149.4375 229.882812 C 159.210938 229.882812 168.691406 227.96875 177.617188 224.191406 C 186.238281 220.546875 193.976562 215.328125 200.625 208.679688 C 207.273438 202.03125 212.492188 194.289062 216.136719 185.671875 C 219.914062 176.746094 221.828125 167.265625 221.828125 157.492188 C 221.828125 155.988281 221.777344 154.492188 221.6875 153.003906 C 225.6875 153.164062 229.703125 153.527344 233.726562 154.097656 C 239.167969 154.871094 244.632812 155.792969 250.117188 156.863281 C 255.601562 157.933594 261.066406 159.039062 266.507812 160.171875 C 271.949219 161.308594 277.347656 162.253906 282.707031 163 C 288.0625 163.75 293.355469 164.203125 298.582031 164.351562 C 303.808594 164.503906 308.949219 164.105469 314.007812 163.164062 C 314.519531 162.992188 314.820312 162.757812 314.90625 162.457031 C 314.996094 162.15625 314.910156 161.855469 314.652344 161.554688 Z M 219.40625 157.496094 C 219.40625 196.070312 188.019531 227.457031 149.441406 227.457031 C 110.863281 227.457031 79.480469 196.070312 79.480469 157.496094 C 79.480469 150.816406 80.421875 144.355469 82.175781 138.234375 C 87.625 137.503906 93.035156 137.144531 98.398438 137.164062 C 103.820312 137.1875 109.195312 137.734375 114.53125 138.804688 C 119.867188 139.875 125.105469 141.675781 130.25 144.203125 C 128.492188 144.804688 126.851562 145.757812 125.332031 147.0625 C 123.808594 148.371094 122.480469 149.859375 121.34375 151.53125 C 120.207031 153.203125 119.308594 154.957031 118.644531 156.800781 C 117.980469 158.644531 117.628906 160.359375 117.582031 161.945312 C 117.539062 163.273438 117.734375 164.539062 118.160156 165.734375 C 118.589844 166.9375 119.339844 167.75 120.410156 168.179688 C 121.78125 168.734375 123.121094 168.722656 124.425781 168.144531 C 125.734375 167.566406 126.976562 166.691406 128.15625 165.507812 C 129.332031 164.332031 130.441406 162.992188 131.484375 161.492188 C 132.527344 159.992188 133.460938 158.582031 134.292969 157.25 C 133.285156 163.121094 132.519531 168.851562 131.996094 174.445312 C 131.46875 180.035156 131.355469 185.148438 131.65625 189.773438 C 131.878906 193.242188 132.371094 196.265625 133.140625 198.835938 C 133.90625 201.40625 135 203.355469 136.414062 204.6875 C 137.398438 205.542969 138.328125 206.003906 139.210938 206.070312 C 140.085938 206.132812 140.773438 205.980469 141.265625 205.617188 C 141.757812 205.253906 141.996094 204.792969 141.972656 204.234375 C 141.953125 203.679688 141.554688 203.183594 140.785156 202.757812 C 138.554688 201.601562 136.898438 199.929688 135.804688 197.746094 C 134.710938 195.558594 134.078125 192.753906 133.910156 189.324219 C 133.734375 186.070312 133.804688 182.757812 134.128906 179.394531 C 134.453125 176.027344 134.945312 172.710938 135.609375 169.429688 C 136.273438 166.152344 137.070312 162.9375 137.992188 159.789062 C 138.914062 156.640625 139.910156 153.671875 140.980469 150.886719 C 142.222656 148.917969 143.550781 146.765625 144.964844 144.425781 C 146.378906 142.09375 147.800781 139.648438 149.238281 137.101562 C 150.675781 134.550781 152.066406 131.96875 153.417969 129.355469 C 154.765625 126.742188 155.976562 124.179688 157.050781 121.671875 C 158.121094 119.167969 159.011719 116.753906 159.71875 114.445312 C 160.425781 112.128906 160.863281 110.03125 161.035156 108.144531 C 161.207031 106.046875 161.003906 104.460938 160.425781 103.390625 C 159.847656 102.316406 159.066406 101.683594 158.078125 101.492188 C 157.089844 101.300781 156.019531 101.484375 154.863281 102.039062 C 153.707031 102.597656 152.632812 103.453125 151.648438 104.609375 C 150.535156 105.679688 149.367188 107.425781 148.148438 109.847656 C 146.925781 112.269531 145.671875 115.207031 144.386719 118.652344 C 143.101562 122.105469 141.828125 126.003906 140.5625 130.351562 C 139.300781 134.699219 138.109375 139.316406 136.996094 144.203125 C 131.125 141.160156 125.210938 138.945312 119.257812 137.550781 C 113.300781 136.160156 107.332031 135.34375 101.355469 135.109375 C 95.378906 134.875 89.445312 135.078125 83.550781 135.71875 C 83.34375 135.742188 83.136719 135.769531 82.929688 135.789062 C 92.082031 107.804688 118.441406 87.535156 149.441406 87.535156 C 185.738281 87.535156 215.667969 115.316406 219.082031 150.734375 C 218.875 150.730469 218.671875 150.726562 218.464844 150.726562 C 212.789062 150.707031 207.089844 151.167969 201.371094 152.109375 C 195.648438 153.050781 189.980469 154.679688 184.371094 156.992188 C 183.984375 157.296875 183.253906 157.660156 182.183594 158.085938 C 181.113281 158.515625 179.847656 158.988281 178.390625 159.503906 C 176.933594 160.015625 175.371094 160.585938 173.699219 161.207031 C 172.027344 161.828125 170.421875 162.460938 168.878906 163.101562 C 167.335938 163.746094 165.933594 164.378906 164.667969 165 C 163.402344 165.621094 162.453125 166.230469 161.808594 166.828125 C 160.867188 167.6875 160.320312 168.566406 160.171875 169.464844 C 160.019531 170.363281 159.859375 171.285156 159.6875 172.226562 C 159.476562 173.8125 159.164062 175.902344 158.757812 178.496094 C 158.347656 181.085938 157.898438 183.894531 157.40625 186.914062 C 156.914062 189.9375 156.386719 193 155.832031 196.105469 C 155.273438 199.214844 154.730469 202.0625 154.191406 204.652344 C 153.65625 207.246094 153.152344 209.410156 152.683594 211.148438 C 152.210938 212.882812 151.828125 213.898438 151.527344 214.199219 C 151.226562 214.496094 151.011719 213.910156 150.882812 212.433594 C 150.753906 210.953125 150.777344 208.265625 150.949219 204.363281 C 151.035156 201.664062 151.292969 198.582031 151.722656 195.109375 C 152.148438 191.640625 152.652344 188.070312 153.230469 184.40625 C 153.808594 180.742188 154.429688 177.113281 155.09375 173.511719 C 155.757812 169.910156 156.414062 166.636719 157.054688 163.679688 C 157.699219 160.722656 158.265625 158.214844 158.757812 156.15625 C 159.25 154.097656 159.625 152.773438 159.882812 152.171875 C 161.980469 149.429688 164.15625 146.644531 166.40625 143.816406 C 168.65625 140.988281 170.746094 138.148438 172.675781 135.300781 C 174.601562 132.449219 176.273438 129.601562 177.6875 126.75 C 179.101562 123.902344 180.066406 121.0625 180.578125 118.234375 C 180.792969 116.992188 180.824219 115.984375 180.675781 115.214844 C 180.523438 114.441406 180.257812 113.84375 179.871094 113.414062 C 179.484375 112.984375 179.003906 112.695312 178.425781 112.546875 C 177.847656 112.398438 177.238281 112.324219 176.59375 112.324219 C 175.007812 112.324219 173.304688 113.277344 171.484375 115.183594 C 169.664062 117.089844 167.832031 119.691406 165.988281 122.992188 C 164.144531 126.292969 162.304688 130.140625 160.460938 134.53125 C 158.617188 138.921875 156.871094 143.605469 155.222656 148.574219 C 153.574219 153.546875 152.039062 158.65625 150.625 163.90625 C 149.210938 169.152344 148 174.273438 146.992188 179.265625 C 145.988281 184.257812 145.214844 188.992188 144.679688 193.472656 C 144.144531 197.949219 143.917969 201.902344 144.003906 205.332031 C 144.046875 207.730469 144.292969 209.808594 144.742188 211.566406 C 145.195312 213.324219 145.761719 214.792969 146.449219 215.96875 C 147.132812 217.148438 147.894531 218.039062 148.730469 218.636719 C 149.5625 219.238281 150.433594 219.535156 151.332031 219.535156 C 152.449219 219.578125 153.433594 219.042969 154.289062 217.929688 C 155.148438 216.8125 155.90625 215.316406 156.570312 213.429688 C 157.234375 211.542969 157.816406 209.359375 158.308594 206.875 C 158.800781 204.386719 159.230469 201.785156 159.59375 199.0625 C 159.957031 196.34375 160.257812 193.578125 160.492188 190.773438 C 160.726562 187.964844 160.945312 185.308594 161.136719 182.800781 C 161.328125 180.296875 161.5 178.023438 161.648438 175.988281 C 161.800781 173.953125 161.960938 172.335938 162.128906 171.136719 C 162.214844 170.492188 162.3125 169.980469 162.417969 169.59375 C 162.527344 169.207031 162.839844 168.886719 163.351562 168.628906 C 165.023438 167.773438 166.832031 167 168.78125 166.3125 C 170.730469 165.628906 172.714844 164.945312 174.726562 164.257812 C 176.742188 163.570312 178.703125 162.839844 180.609375 162.070312 C 182.515625 161.300781 184.261719 160.398438 185.847656 159.371094 C 190.949219 156.972656 196.144531 155.289062 201.433594 154.324219 C 206.726562 153.363281 212.074219 152.890625 217.472656 152.910156 C 218.070312 152.914062 218.664062 152.921875 219.261719 152.933594 C 219.355469 154.441406 219.40625 155.964844 219.40625 157.496094 Z M 132.625 146.871094 C 133.824219 146.207031 135.046875 146.214844 136.289062 146.902344 C 135.257812 149.171875 134.113281 151.347656 132.851562 153.425781 C 131.585938 155.507812 130.394531 157.316406 129.28125 158.859375 C 128.167969 160.398438 127.195312 161.566406 126.359375 162.359375 C 125.523438 163.15625 124.976562 163.398438 124.71875 163.101562 C 124.503906 162.800781 124.375 162.382812 124.332031 161.847656 C 124.289062 161.3125 124.308594 160.753906 124.398438 160.175781 C 124.480469 159.597656 124.589844 159.042969 124.71875 158.503906 C 124.847656 157.96875 124.976562 157.550781 125.105469 157.25 C 125.402344 156.351562 125.917969 155.171875 126.648438 153.714844 C 127.375 152.261719 128.253906 150.921875 129.28125 149.699219 C 130.3125 148.476562 131.425781 147.535156 132.625 146.871094 Z M 142.714844 142.59375 C 143.789062 138.136719 145.03125 133.714844 146.445312 129.320312 C 147.859375 124.929688 149.464844 120.996094 151.265625 117.527344 C 152.507812 115.085938 153.589844 113.242188 154.511719 111.996094 C 155.433594 110.753906 156.085938 110.144531 156.472656 110.167969 C 156.855469 110.1875 156.921875 110.863281 156.664062 112.191406 C 156.40625 113.519531 155.742188 115.554688 154.671875 118.296875 C 153.898438 120.226562 153.039062 122.242188 152.097656 124.339844 C 151.15625 126.441406 150.160156 128.527344 149.109375 130.605469 C 148.058594 132.6875 146.988281 134.742188 145.894531 136.777344 C 144.804688 138.8125 143.746094 140.753906 142.714844 142.59375 Z M 162.449219 144.074219 C 163.949219 139.746094 165.609375 135.460938 167.429688 131.21875 C 169.25 126.976562 171.1875 123.207031 173.246094 119.90625 C 174.316406 118.234375 175.207031 117.046875 175.914062 116.335938 C 176.621094 115.628906 177.136719 115.363281 177.457031 115.535156 C 177.777344 115.707031 177.875 116.265625 177.746094 117.207031 C 177.617188 118.152344 177.230469 119.414062 176.589844 121 C 175.945312 122.628906 175.066406 124.417969 173.953125 126.363281 C 172.839844 128.316406 171.628906 130.320312 170.320312 132.375 C 169.011719 134.433594 167.675781 136.46875 166.304688 138.480469 C 164.933594 140.496094 163.648438 142.359375 162.449219 144.074219 Z M 162.449219 144.074219 " fill-opacity="1" fill-rule="nonzero"/></g></svg>